<!-- Copyright © 2023 M. A. Irsyad M. Aminuddin. All rights reserved. --> 
<svg id="visual" viewBox="0 0 900 600" width="900" height="600" xmlns="http://www.w3.org/2000/svg" xmlns:xlink="http://www.w3.org/1999/xlink" version="1.1"><rect x="0" y="0" width="900" height="600" fill="#424242"></rect><defs><linearGradient id="grad1_0" x1="33.3%" y1="0%" x2="100%" y2="100%"><stop offset="20%" stop-color="#00bcd4" stop-opacity="1"></stop><stop offset="80%" stop-color="#00bcd4" stop-opacity="1"></stop></linearGradient></defs><defs><linearGradient id="grad1_1" x1="33.3%" y1="0%" x2="100%" y2="100%"><stop offset="20%" stop-color="#00bcd4" stop-opacity="1"></stop><stop offset="80%" stop-color="#2ca9bd" stop-opacity="1"></stop></linearGradient></defs><defs><linearGradient id="grad1_2" x1="33.3%" y1="0%" x2="100%" y2="100%"><stop offset="20%" stop-color="#3b97a7" stop-opacity="1"></stop><stop offset="80%" stop-color="#2ca9bd" stop-opacity="1"></stop></linearGradient></defs><defs><linearGradient id="grad1_3" x1="33.3%" y1="0%" x2="100%" y2="100%"><stop offset="20%" stop-color="#3b97a7" stop-opacity="1"></stop><stop offset="80%" stop-color="#428592" stop-opacity="1"></stop></linearGradient></defs><defs><linearGradient id="grad1_4" x1="33.3%" y1="0%" x2="100%" y2="100%"><stop offset="20%" stop-color="#46747d" stop-opacity="1"></stop><stop offset="80%" stop-color="#428592" stop-opacity="1"></stop></linearGradient></defs><defs><linearGradient id="grad1_5" x1="33.3%" y1="0%" x2="100%" y2="100%"><stop offset="20%" stop-color="#46747d" stop-opacity="1"></stop><stop offset="80%" stop-color="#476369" stop-opacity="1"></stop></linearGradient></defs><defs><linearGradient id="grad1_6" x1="33.3%" y1="0%" x2="100%" y2="100%"><stop offset="20%" stop-color="#455255" stop-opacity="1"></stop><stop offset="80%" stop-color="#476369" stop-opacity="1"></stop></linearGradient></defs><defs><linearGradient id="grad1_7" x1="33.3%" y1="0%" x2="100%" y2="100%"><stop offset="20%" stop-color="#455255" stop-opacity="1"></stop><stop offset="80%" stop-color="#424242" stop-opacity="1"></stop></linearGradient></defs><defs><linearGradient id="grad2_0" x1="0%" y1="0%" x2="66.7%" y2="100%"><stop offset="20%" stop-color="#00bcd4" stop-opacity="1"></stop><stop offset="80%" stop-color="#00bcd4" stop-opacity="1"></stop></linearGradient></defs><defs><linearGradient id="grad2_1" x1="0%" y1="0%" x2="66.7%" y2="100%"><stop offset="20%" stop-color="#2ca9bd" stop-opacity="1"></stop><stop offset="80%" stop-color="#00bcd4" stop-opacity="1"></stop></linearGradient></defs><defs><linearGradient id="grad2_2" x1="0%" y1="0%" x2="66.7%" y2="100%"><stop offset="20%" stop-color="#2ca9bd" stop-opacity="1"></stop><stop offset="80%" stop-color="#3b97a7" stop-opacity="1"></stop></linearGradient></defs><defs><linearGradient id="grad2_3" x1="0%" y1="0%" x2="66.7%" y2="100%"><stop offset="20%" stop-color="#428592" stop-opacity="1"></stop><stop offset="80%" stop-color="#3b97a7" stop-opacity="1"></stop></linearGradient></defs><defs><linearGradient id="grad2_4" x1="0%" y1="0%" x2="66.7%" y2="100%"><stop offset="20%" stop-color="#428592" stop-opacity="1"></stop><stop offset="80%" stop-color="#46747d" stop-opacity="1"></stop></linearGradient></defs><defs><linearGradient id="grad2_5" x1="0%" y1="0%" x2="66.7%" y2="100%"><stop offset="20%" stop-color="#476369" stop-opacity="1"></stop><stop offset="80%" stop-color="#46747d" stop-opacity="1"></stop></linearGradient></defs><defs><linearGradient id="grad2_6" x1="0%" y1="0%" x2="66.7%" y2="100%"><stop offset="20%" stop-color="#476369" stop-opacity="1"></stop><stop offset="80%" stop-color="#455255" stop-opacity="1"></stop></linearGradient></defs><defs><linearGradient id="grad2_7" x1="0%" y1="0%" x2="66.7%" y2="100%"><stop offset="20%" stop-color="#424242" stop-opacity="1"></stop><stop offset="80%" stop-color="#455255" stop-opacity="1"></stop></linearGradient></defs><g transform="translate(900, 0)"><path d="M0 438C-53.8 455.7 -107.6 473.3 -148 455.6C-188.5 437.8 -215.5 384.6 -257.4 354.3C-299.4 324.1 -356.1 316.8 -393.8 286.1C-431.4 255.4 -450 201.2 -460.3 149.6C-470.7 98 -472.8 49 -475 0L0 0Z" fill="#444a4b"></path><path d="M0 383.3C-47.1 398.7 -94.1 414.2 -129.5 398.6C-164.9 383.1 -188.6 336.5 -225.3 310.1C-262 283.6 -311.6 277.2 -344.6 250.3C-377.5 223.4 -393.7 176 -402.8 130.9C-411.8 85.7 -413.7 42.9 -415.6 0L0 0Z" fill="#465a5f"></path><path d="M0 328.5C-40.3 341.7 -80.7 355 -111 341.7C-141.3 328.3 -161.6 288.4 -193.1 265.8C-224.5 243.1 -267.1 237.6 -295.3 214.6C-323.6 191.5 -337.5 150.9 -345.2 112.2C-353 73.5 -354.6 36.7 -356.2 0L0 0Z" fill="#476b73"></path><path d="M0 273.8C-33.6 284.8 -67.2 295.8 -92.5 284.7C-117.8 273.6 -134.7 240.4 -160.9 221.5C-187.1 202.6 -222.6 198 -246.1 178.8C-269.6 159.6 -281.2 125.7 -287.7 93.5C-294.2 61.2 -295.5 30.6 -296.9 0L0 0Z" fill="#457d87"></path><path d="M0 219C-26.9 227.8 -53.8 236.7 -74 227.8C-94.2 218.9 -107.8 192.3 -128.7 177.2C-149.7 162.1 -178.1 158.4 -196.9 143.1C-215.7 127.7 -225 100.6 -230.2 74.8C-235.3 49 -236.4 24.5 -237.5 0L0 0Z" fill="#3f8e9d"></path><path d="M0 164.3C-20.2 170.9 -40.3 177.5 -55.5 170.8C-70.7 164.2 -80.8 144.2 -96.5 132.9C-112.3 121.5 -133.6 118.8 -147.7 107.3C-161.8 95.8 -168.7 75.4 -172.6 56.1C-176.5 36.7 -177.3 18.4 -178.1 0L0 0Z" fill="#35a0b2"></path><path d="M0 109.5C-13.4 113.9 -26.9 118.3 -37 113.9C-47.1 109.4 -53.9 96.1 -64.4 88.6C-74.8 81 -89 79.2 -98.4 71.5C-107.9 63.8 -112.5 50.3 -115.1 37.4C-117.7 24.5 -118.2 12.2 -118.7 0L0 0Z" fill="#1fb3c9"></path><path d="M0 54.8C-6.7 57 -13.4 59.2 -18.5 56.9C-23.6 54.7 -26.9 48.1 -32.2 44.3C-37.4 40.5 -44.5 39.6 -49.2 35.8C-53.9 31.9 -56.2 25.1 -57.5 18.7C-58.8 12.2 -59.1 6.1 -59.4 0L0 0Z" fill="#00bcd4"></path></g><g transform="translate(0, 600)"><path d="M0 -477C49.1 -467.7 98.2 -458.3 143.1 -440.3C187.9 -422.4 228.5 -395.7 265.1 -364.9C301.7 -334 334.4 -299 358.4 -260.4C382.4 -221.8 397.6 -179.6 417.5 -135.7C437.4 -91.7 462.1 -45.8 486.7 0L0 0Z" fill="#444a4b"></path><path d="M0 -417.4C43 -409.2 86 -401 125.2 -385.3C164.4 -369.6 199.9 -346.2 232 -319.3C264 -292.3 292.6 -261.6 313.6 -227.8C334.6 -194.1 347.9 -157.2 365.3 -118.7C382.8 -80.2 404.3 -40.1 425.9 0L0 0Z" fill="#465a5f"></path><path d="M0 -357.7C36.8 -350.7 73.7 -343.7 107.3 -330.3C140.9 -316.8 171.3 -296.8 198.8 -273.6C226.3 -250.5 250.8 -224.2 268.8 -195.3C286.8 -166.3 298.2 -134.7 313.1 -101.7C328.1 -68.8 346.6 -34.4 365.1 0L0 0Z" fill="#476b73"></path><path d="M0 -298.1C30.7 -292.3 61.4 -286.5 89.4 -275.2C117.4 -264 142.8 -247.3 165.7 -228C188.6 -208.8 209 -186.9 224 -162.7C239 -138.6 248.5 -112.3 260.9 -84.8C273.4 -57.3 288.8 -28.6 304.2 0L0 0Z" fill="#457d87"></path><path d="M0 -238.5C24.6 -233.8 49.1 -229.2 71.5 -220.2C94 -211.2 114.2 -197.9 132.5 -182.4C150.9 -167 167.2 -149.5 179.2 -130.2C191.2 -110.9 198.8 -89.8 208.8 -67.8C218.7 -45.8 231 -22.9 243.4 0L0 0Z" fill="#3f8e9d"></path><path d="M0 -178.9C18.4 -175.4 36.8 -171.9 53.7 -165.1C70.5 -158.4 85.7 -148.4 99.4 -136.8C113.1 -125.3 125.4 -112.1 134.4 -97.6C143.4 -83.2 149.1 -67.4 156.6 -50.9C164 -34.4 173.3 -17.2 182.5 0L0 0Z" fill="#35a0b2"></path><path d="M0 -119.2C12.3 -116.9 24.6 -114.6 35.8 -110.1C47 -105.6 57.1 -98.9 66.3 -91.2C75.4 -83.5 83.6 -74.7 89.6 -65.1C95.6 -55.4 99.4 -44.9 104.4 -33.9C109.4 -22.9 115.5 -11.5 121.7 0L0 0Z" fill="#1fb3c9"></path><path d="M0 -59.6C6.1 -58.5 12.3 -57.3 17.9 -55C23.5 -52.8 28.6 -49.5 33.1 -45.6C37.7 -41.8 41.8 -37.4 44.8 -32.5C47.8 -27.7 49.7 -22.5 52.2 -17C54.7 -11.5 57.8 -5.7 60.8 0L0 0Z" fill="#00bcd4"></path></g></svg>