<!-- Copyright © 2023 M. A. Irsyad M. Aminuddin. All rights reserved. --> 
<svg width="3160.3" height="755.91" overflow="hidden" version="1.1" xml:space="preserve" xmlns="http://www.w3.org/2000/svg"><defs><clipPath id="clip0"><rect x="1524" y="6091" width="7145" height="1709"/></clipPath><linearGradient id="fill1" x1="1524" x2="3233" y1="6091" y2="7800" gradientUnits="userSpaceOnUse" spreadMethod="reflect"><stop stop-color="#00BCD4" offset="0"/><stop stop-color="#01BBD3" offset=".009434"/><stop stop-color="#02BBD3" offset=".018868"/><stop stop-color="#03BBD3" offset=".028302"/><stop stop-color="#04BBD3" offset=".037736"/><stop stop-color="#05BBD3" offset=".04717"/><stop stop-color="#06BBD3" offset=".056604"/><stop stop-color="#07BBD3" offset=".066038"/><stop stop-color="#08BBD3" offset=".075472"/><stop stop-color="#09BAD3" offset=".084906"/><stop stop-color="#0ABAD3" offset=".09434"/><stop stop-color="#0BBAD3" offset=".10377"/><stop stop-color="#0CBAD3" offset=".11321"/><stop stop-color="#0DB9D3" offset=".12264"/><stop stop-color="#0EB9D3" offset=".13208"/><stop stop-color="#0FB9D3" offset=".14151"/><stop stop-color="#10B8D3" offset=".15094"/><stop stop-color="#11B8D2" offset=".16038"/><stop stop-color="#12B8D2" offset=".16981"/><stop stop-color="#13B7D2" offset=".17924"/><stop stop-color="#14B7D2" offset=".18868"/><stop stop-color="#15B6D2" offset=".19811"/><stop stop-color="#16B6D2" offset=".20755"/><stop stop-color="#17B5D2" offset=".21698"/><stop stop-color="#18B5D2" offset=".22642"/><stop stop-color="#18B4D1" offset=".23585"/><stop stop-color="#19B4D1" offset=".24528"/><stop stop-color="#1AB3D1" offset=".25472"/><stop stop-color="#1BB3D1" offset=".26415"/><stop stop-color="#1CB2D1" offset=".27358"/><stop stop-color="#1DB1D1" offset=".28302"/><stop stop-color="#1EB1D0" offset=".29245"/><stop stop-color="#1EB0D0" offset=".30189"/><stop stop-color="#1FB0D0" offset=".31132"/><stop stop-color="#20AFD0" offset=".32076"/><stop stop-color="#21AED0" offset=".33019"/><stop stop-color="#22ADCF" offset=".33962"/><stop stop-color="#22ADCF" offset=".34906"/><stop stop-color="#23ACCF" offset=".35849"/><stop stop-color="#24ABCF" offset=".36792"/><stop stop-color="#25AACF" offset=".37736"/><stop stop-color="#25A9CE" offset=".38679"/><stop stop-color="#26A9CE" offset=".39623"/><stop stop-color="#27A8CE" offset=".40566"/><stop stop-color="#27A7CE" offset=".41509"/><stop stop-color="#28A6CD" offset=".42453"/><stop stop-color="#29A5CD" offset=".43396"/><stop stop-color="#29A4CD" offset=".4434"/><stop stop-color="#2AA3CC" offset=".45283"/><stop stop-color="#2BA2CC" offset=".46226"/><stop stop-color="#2BA1CC" offset=".4717"/><stop stop-color="#2CA0CC" offset=".48113"/><stop stop-color="#2D9FCB" offset=".49057"/><stop stop-color="#2D9ECB" offset=".5"/><stop stop-color="#2E9DCB" offset=".50943"/><stop stop-color="#2F9CCA" offset=".51887"/><stop stop-color="#2F9BCA" offset=".5283"/><stop stop-color="#309ACA" offset=".53774"/><stop stop-color="#3099C9" offset=".54717"/><stop stop-color="#3198C9" offset=".5566"/><stop stop-color="#3197C9" offset=".56604"/><stop stop-color="#3296C8" offset=".57547"/><stop stop-color="#3294C8" offset=".58491"/><stop stop-color="#3393C8" offset=".59434"/><stop stop-color="#3392C7" offset=".60377"/><stop stop-color="#3491C7" offset=".61321"/><stop stop-color="#348FC7" offset=".62264"/><stop stop-color="#358EC6" offset=".63208"/><stop stop-color="#358DC6" offset=".64151"/><stop stop-color="#368CC6" offset=".65094"/><stop stop-color="#368AC5" offset=".66038"/><stop stop-color="#3789C5" offset=".66981"/><stop stop-color="#3788C4" offset=".67924"/><stop stop-color="#3786C4" offset=".68868"/><stop stop-color="#3885C4" offset=".69811"/><stop stop-color="#3884C3" offset=".70755"/><stop stop-color="#3982C3" offset=".71698"/><stop stop-color="#3981C2" offset=".72642"/><stop stop-color="#397FC2" offset=".73585"/><stop stop-color="#3A7EC2" offset=".74528"/><stop stop-color="#3A7CC1" offset=".75472"/><stop stop-color="#3A7BC1" offset=".76415"/><stop stop-color="#3B79C0" offset=".77358"/><stop stop-color="#3B78C0" offset=".78302"/><stop stop-color="#3B76BF" offset=".79245"/><stop stop-color="#3B75BF" offset=".80189"/><stop stop-color="#3C73BF" offset=".81132"/><stop stop-color="#3C72BE" offset=".82076"/><stop stop-color="#3C70BE" offset=".83019"/><stop stop-color="#3C6EBD" offset=".83962"/><stop stop-color="#3D6DBD" offset=".84906"/><stop stop-color="#3D6BBC" offset=".85849"/><stop stop-color="#3D69BC" offset=".86792"/><stop stop-color="#3D68BB" offset=".87736"/><stop stop-color="#3D66BB" offset=".88679"/><stop stop-color="#3E64BA" offset=".89623"/><stop stop-color="#3E63BA" offset=".90566"/><stop stop-color="#3E61B9" offset=".91509"/><stop stop-color="#3E5FB9" offset=".92453"/><stop stop-color="#3E5DB8" offset=".93396"/><stop stop-color="#3E5CB8" offset=".9434"/><stop stop-color="#3E5AB7" offset=".95283"/><stop stop-color="#3E58B7" offset=".96226"/><stop stop-color="#3E56B6" offset=".9717"/><stop stop-color="#3E54B6" offset=".98113"/><stop stop-color="#3E52B5" offset=".99057"/><stop stop-color="#3F51B5" offset="1"/></linearGradient></defs><g transform="matrix(.44231 0 0 .44231 -674.08 -2694.1)" clip-path="url(#clip0)"><rect x="1882" y="6398" width="910" height="910" fill="#fff"/><path d="m2071.8 6492.9c-26.73 0-48.54 8.79-65.42 26.37-16.88 17.59-25.32 40.45-25.32 68.58v564.48c0 28.84 8.44 52.05 25.32 69.64 16.88 17.58 38.69 26.37 65.42 26.37 27.43 0 49.24-8.79 65.41-26.37 16.18-17.59 24.27-40.8 24.27-69.64v-335.52l320.75 399.88c16.18 21.1 40.09 31.65 71.75 31.65 26.73 0 48.53-8.79 65.41-26.37 16.88-17.59 25.32-40.8 25.32-69.64v-564.48c0-28.13-8.61-50.99-25.85-68.58-17.23-17.58-39.21-26.37-65.94-26.37s-48.36 8.61-64.89 25.85c-16.53 17.23-24.79 40.27-24.79 69.1v335.52l-320.75-398.82c-16.88-21.1-40.45-31.65-70.69-31.65zm231.62-401.9c430.43 0 779.36 348.93 779.36 779.37 0 134.51-34.07 261.06-94.06 371.49l-14.46 23.8 201.72 201.72c76.09 76.1 76.09 199.46 0 275.55s-199.45 76.09-275.55 0l-201.72-201.72-23.8 14.46c-110.43 59.99-236.98 94.06-371.49 94.06-430.44 0-779.37-348.93-779.37-779.36 0-430.44 348.93-779.37 779.37-779.37z" fill="url(#fill1)" fill-rule="evenodd"/><path d="m7362 6825.4c-42.22 0-74.93 14.07-98.14 42.2-23.22 28.13-34.83 68.56-34.83 121.31 0 53.45 11.61 94.94 34.83 124.47 23.21 29.54 55.57 44.31 97.08 44.31 42.21 0 74.75-14.42 97.61-43.25 22.86-28.84 34.3-69.98 34.3-123.42 0-53.45-11.44-94.41-34.3-122.89-22.86-28.49-55.05-42.73-96.55-42.73zm625.34-9.49c-35.87 0-64.54 11.25-86 33.76-21.46 22.5-34.29 54.85-38.52 97.04h238.49c-1.4-42.89-11.96-75.42-31.66-97.57-19.69-22.15-47.13-33.23-82.31-33.23zm-3621.6-20.04c-49.95 0-88.64 17.05-116.08 51.16s-41.16 82.45-41.16 145.04c0 63.3 13.55 111.82 40.63 145.57 27.09 33.76 65.96 50.64 116.61 50.64s89.52-16.7 116.6-50.11c27.09-33.4 40.63-82.1 40.63-146.1 0-62.59-13.72-110.93-41.15-145.04-27.44-34.11-66.13-51.16-116.08-51.16zm941.82-4.22c-45.02 0-81.08 14.06-108.16 42.19-27.09 28.13-43.09 67.87-48.02 119.2h298.64c-1.41-52.04-14.42-91.95-39.04-119.73-24.63-27.77-59.1-41.66-103.42-41.66zm996.65-66.46c18.99 0 34.82 5.28 47.48 15.82 12.67 10.55 19 26.02 19 46.42v407.18c0 20.39-6.33 36.04-19 46.94-12.66 10.9-28.49 16.35-47.48 16.35-19 0-34.65-5.45-46.96-16.35s-18.47-26.55-18.47-46.94v-407.18c0-20.4 6.16-35.87 18.47-46.42 12.31-10.54 27.96-15.82 46.96-15.82zm-997.7 0c66.83 0 119.94 21.8 159.34 65.4 39.39 43.6 59.09 102.68 59.09 177.22 0 14.07-2.81 24.26-8.44 30.59s-14.77 9.5-27.44 9.5h-339.79c6.33 120.95 63.67 181.43 172.01 181.43 27.44 0 51-3.69 70.7-11.07 19.7-7.39 40.8-17.41 63.32-30.07 18.29-10.55 30.6-15.82 36.93-15.82 7.74 0 14.42 3.17 20.05 9.49 5.63 6.33 8.44 14.42 8.44 24.27 0 17.58-12.31 33.75-36.93 48.52-25.33 14.77-52.06 25.84-80.2 33.23-28.14 7.38-55.58 11.07-82.31 11.07-79.5 0-142.28-23.55-188.36-70.67s-69.12-112.17-69.12-195.15c0-52.75 10.2-99.34 30.6-139.77 20.4-40.44 49.07-71.91 86-94.41 36.94-22.51 78.97-33.76 126.11-33.76zm-940.77 0c48.54 0 91.45 10.9 128.74 32.7 37.28 21.8 65.95 52.92 86 93.36 20.05 40.43 30.08 87.38 30.08 140.82 0 53.45-10.03 100.39-30.08 140.83-20.05 40.43-48.72 71.55-86 93.35-37.29 21.8-80.2 32.7-128.74 32.7s-91.28-10.9-128.22-32.7c-36.93-21.8-65.42-52.92-85.47-93.35-20.05-40.44-30.08-87.38-30.08-140.83 0-53.44 10.03-100.39 30.08-140.82 20.05-40.44 48.54-71.56 85.47-93.36 36.94-21.8 79.68-32.7 128.22-32.7zm4257.1-0.06c12.27 0.92 22.36 4.81 30.27 11.66 10.55 9.15 15.83 22.86 15.83 41.14 0 18.99-4.57 33.06-13.72 42.2-9.14 9.14-25.68 15.12-49.59 17.93l-31.66 3.17c-41.51 4.22-71.94 18.28-91.28 42.19-19.35 23.91-29.02 53.8-29.02 89.67v221.52c0 20.39-6.33 36.04-19 46.94-12.66 10.9-28.49 16.35-47.48 16.35-19 0-34.65-5.45-46.96-16.35s-18.47-26.55-18.47-46.94v-408.24c0-19.69 6.16-34.81 18.47-45.36 12.31-10.54 27.61-15.82 45.9-15.82s33.07 5.1 44.32 15.3c11.26 10.19 16.89 24.79 16.89 43.77v42.2c13.36-30.94 33.24-54.85 59.62-71.73s55.75-26.37 88.11-28.48l14.78-1.06c4.57-0.35 8.9-0.37 12.99-0.06zm-638.7-2.05c46.43 0 86.88 10.2 121.35 30.59 34.47 20.4 61.21 49.23 80.2 86.5 19 37.27 28.49 81.23 28.49 131.86 0 30.24-13.36 45.36-40.1 45.36h-311.3c4.23 48.52 17.94 84.21 41.16 107.07 23.22 22.85 56.98 34.28 101.3 34.28 22.52 0 42.39-2.81 59.63-8.44 17.23-5.62 36.75-13.36 58.56-23.2 21.11-11.26 36.58-16.88 46.43-16.88 11.96 0 21.64 4.57 29.02 13.71 7.39 9.14 11.08 21.45 11.08 36.92 0 21.8-13.01 40.09-39.04 54.86-23.92 13.36-51.01 24.08-81.25 32.17-30.26 8.09-59.1 12.13-86.54 12.13-83.01 0-148.79-23.91-197.33-71.73s-72.81-113.22-72.81-196.21c0-52.74 10.55-99.51 31.66-140.29 21.1-40.79 50.82-72.44 89.17-94.94 38.34-22.51 81.78-33.76 130.32-33.76zm-1177.6 0c61.91 0 107.99 17.58 138.24 52.74 30.25 35.17 45.38 88.26 45.38 159.29v259.5c0 19.69-5.81 35.16-17.41 46.41-11.61 11.25-27.61 16.88-48.02 16.88-20.4 0-36.58-5.63-48.54-16.88s-17.94-26.72-17.94-46.41v-252.12c0-40.08-7.56-69.27-22.69-87.55-15.12-18.28-38.86-27.43-71.23-27.43-37.98 0-68.41 11.96-91.28 35.87-22.86 23.91-34.29 55.91-34.29 95.99v235.24c0 19.69-5.98 35.16-17.94 46.41s-28.14 16.88-48.54 16.88-36.41-5.63-48.02-16.88c-11.6-11.25-17.41-26.72-17.41-46.41v-408.24c0-18.28 5.98-33.05 17.94-44.3s28.14-16.88 48.54-16.88c18.29 0 33.24 5.45 44.85 16.35s17.41 25.14 17.41 42.72v28.48c17.59-28.83 41.16-50.98 70.71-66.45 29.54-15.47 62.96-23.21 100.24-23.21zm-1997.9-146.63c12.66 0 22.86 3.7 30.6 11.08s11.61 17.76 11.61 31.12v119.2h117.13c11.26 0 20.22 3.16 26.91 9.49 6.68 6.33 10.02 14.77 10.02 25.32 0 9.85-3.34 17.76-10.02 23.73-6.69 5.98-15.65 8.97-26.91 8.97h-117.13v268.99c0 38.68 7.91 66.64 23.74 83.86 15.83 17.23 39.57 26.9 71.23 29.01l28.49 2.11c24.62 2.11 36.93 13.37 36.93 33.76 0 11.95-4.39 20.92-13.19 26.9-8.79 5.98-21.98 8.26-39.57 6.85l-28.49-2.1c-56.28-4.22-97.79-21.1-124.52-50.64-26.73-29.53-40.1-74.19-40.1-133.97v-264.77h-70.7c-11.96 0-21.28-2.99-27.97-8.97-6.68-5.97-10.02-13.88-10.02-23.73 0-10.55 3.34-18.99 10.02-25.32 6.69-6.33 16.01-9.49 27.97-9.49h70.7v-119.2c0-13.36 3.87-23.74 11.61-31.12s18.29-11.08 31.66-11.08zm909.04-68.56h370.4c42.91 0 64.37 18.28 64.37 54.85 0 35.87-21.46 53.8-64.37 53.8h-301.8v202.53h280.69c42.92 0 64.37 18.29 64.37 54.86 0 35.86-21.45 53.8-64.37 53.8h-280.69v261.6c0 20.4-5.98 36.92-17.94 49.58s-28.14 18.99-48.55 18.99c-20.4 0-36.75-6.33-49.07-18.99-12.31-12.66-18.46-29.18-18.46-49.58v-617.1c0-20.39 5.8-36.21 17.41-47.46 11.61-11.26 27.61-16.88 48.01-16.88zm1838.4-5.28c19.7 0 35.88 5.63 48.54 16.88 12.67 11.25 19 26.02 19 44.31v630.81c0 18.99-5.98 34.11-17.94 45.36s-27.79 16.87-47.49 16.87-35.52-5.62-47.48-16.87-17.94-26.37-17.94-45.36v-26.37c-15.48 28.83-37.82 51.33-67.01 67.51-29.2 16.17-62.44 24.26-99.72 24.26-44.32 0-83.9-11.25-118.72-33.76-34.82-22.5-61.91-54.32-81.25-95.46-19.35-41.14-29.02-88.43-29.02-141.88s9.67-100.21 29.02-140.3c19.34-40.08 46.25-71.03 80.72-92.83s74.22-32.7 119.25-32.7c37.28 0 70.35 7.74 99.19 23.21s51 37.27 66.48 65.4v-250c0-17.59 5.81-31.83 17.41-42.73 11.61-10.9 27.26-16.35 46.96-16.35zm-4129 0c14.07 0 26.03 5.98 35.88 17.94l436.87 585.45v-559.08c0-13.36 3.7-24.09 11.08-32.18 7.39-8.08 17.42-12.13 30.08-12.13s22.51 4.05 29.55 12.13c7.03 8.09 10.55 18.82 10.55 32.18v665.62c0 13.36-3.69 24.09-11.08 32.17-7.39 8.09-17.76 12.13-31.13 12.13s-24.98-5.97-34.82-17.93l-437.94-585.45v559.08c0 13.36-3.69 24.09-11.08 32.17-7.38 8.09-17.41 12.13-30.07 12.13s-22.51-4.04-29.55-12.13c-7.03-8.08-10.55-18.81-10.55-32.17v-665.62c0-13.36 3.69-24.09 11.08-32.18 7.39-8.08 17.76-12.13 31.13-12.13zm2877-11.6c23.21 0 42.03 6.33 56.45 18.99 14.43 12.66 21.64 29.53 21.64 50.63s-7.04 38.15-21.11 51.16-33.06 19.52-56.98 19.52-42.92-6.51-56.99-19.52-21.1-30.06-21.1-51.16 7.03-37.97 21.1-50.63 33.07-18.99 56.99-18.99z" fill="#fff" fill-rule="evenodd"/></g></svg>
