<!-- Copyright © 2023 M. A. Irsyad M. Aminuddin. All rights reserved. --> 
<svg width="400" height="400" overflow="hidden" version="1.1" xml:space="preserve" xmlns="http://www.w3.org/2000/svg"><defs><clipPath id="clip0"><rect x="1064" y="7729" width="1861" height="1861"/></clipPath></defs><g transform="matrix(.21509 0 0 .21509 -228.95 -1662.7)" clip-path="url(#clip0)" fill="#fff" fill-rule="evenodd"><path d="m1259.3 7729.9c49.87 0 99.75 19.02 137.8 57.08l201.77 201.76 23.8-14.46 0.08-0.04 68.07-32.78 10.14-3.72 7.45-3.47c14.75-5.82 29.72-11.2 44.9-16.13l5.84-1.7 3.29-1.2 7.37-1.89 29.62-8.61 30.17-6.77 7.54-1.94 3.47-0.53 6.07-1.36c15.92-3.05 32.02-5.61 48.28-7.68l13.05-1.24 6.53-1 8.43-0.42 21.21-2.02c16.55-1.05 33.25-1.58 50.06-1.58l31.22 1.57 48.49 2.45 18.21 2.78 59.18 9.03h0.01l15.95 4.11 58.75 15.1 26.87 9.84 44.75 16.38 68.14 32.82c243 132.01 407.96 389.46 407.96 685.44 0 16.82-0.53 33.51-1.58 50.07l-2.02 21.23-0.42 8.41-1 6.51-1.24 13.07c-2.07 16.25-4.63 32.35-7.69 48.28l-1.36 6.08-0.53 3.46-1.93 7.52-6.77 30.19-8.62 29.64-1.89 7.35-1.19 3.27-1.71 5.86c-4.92 15.18-10.3 30.15-16.12 44.9l-3.48 7.45-3.71 10.14-32.77 68.02-0.05 0.12-14.47 23.81 201.77 201.77c76.11 76.1 76.11 199.5 0 275.6-76.1 76.11-199.5 76.11-275.6 0l-201.77-201.77-23.81 14.47-0.1 0.05-68.04 32.77-10.14 3.72-7.45 3.47c-14.75 5.82-29.72 11.2-44.9 16.12l-5.85 1.71-3.28 1.2-7.37 1.89-29.62 8.61-30.18 6.77-7.54 1.93-3.46 0.53-6.07 1.36c-15.93 3.06-32.03 5.62-48.28 7.69l-13.05 1.24-6.54 1-8.42 0.42-21.21 2.02c-16.56 1.05-33.25 1.58-50.07 1.58-430.52 0-779.52-349.01-779.52-779.53-0.01-16.81 0.53-33.51 1.58-50.06l2.02-21.24 0.42-8.4 1-6.51 1.24-13.07c2.06-16.26 4.63-32.36 7.68-48.28l1.37-6.08 0.52-3.46 1.94-7.51 6.77-30.2 8.61-29.64 1.89-7.35 1.2-3.28 1.7-5.85c4.93-15.18 10.31-30.15 16.13-44.9l3.47-7.45 3.72-10.14 32.77-68.04 0.05-0.1 14.46-23.81-201.77-201.77c-76.1-76.11-76.1-199.5 0-275.6 38.06-38.06 87.93-57.08 137.81-57.08z" fill-opacity="0"/><path d="m1762.8 8282c30.26 0 53.83 10.56 70.72 31.68l320.92 399.11v-335.76c0-28.86 8.27-51.92 24.81-69.16 16.54-17.25 38.18-25.87 64.92-25.87s48.73 8.8 65.98 26.4c17.24 17.59 25.86 40.47 25.86 68.63v564.89c0 28.86-8.45 52.09-25.34 69.68-16.89 17.6-38.7 26.4-65.45 26.4-31.66 0-55.59-10.56-71.78-31.68l-320.91-400.17v335.77c0 28.86-8.1 52.09-24.28 69.68-16.19 17.6-38.01 26.4-65.45 26.4-26.75 0-48.56-8.8-65.45-26.4-16.89-17.59-25.34-40.82-25.34-69.68v-564.89c0-28.16 8.45-51.04 25.34-68.63 16.89-17.6 38.7-26.4 65.45-26.4z"/></g></svg>
